<svg width="46" height="34" viewBox="0 0 46 34" fill="none" xmlns="http://www.w3.org/2000/svg">
<path d="M45.3466 17.1905C43.4551 17.4359 41.8931 15.8238 41.0869 13.5501C39.8711 10.1234 38.5431 8.28076 37.8099 7.44563C37.6623 7.22139 37.5055 7.00173 37.3431 6.78524C37.6327 5.15978 38.3599 3.11991 40.0753 1.21356C37.6018 0.860342 35.6793 2.29045 34.5026 3.90574C31.4003 1.48663 27.2031 0 22.5811 0C13.2986 0 5.72555 5.9888 5.30807 13.5041C5.20123 14.3627 5.18295 15.2101 5.23356 16.0381C4.07129 18.0691 2.7674 16.294 2.42748 15.6708C1.94985 14.7936 1.23038 13.4454 0 14.3568C1.98715 13.8893 1.40268 16.3439 3.03903 17.7466C3.8154 18.4122 4.69723 18.1033 5.41027 17.5955C6.04395 21.4664 8.01005 24.748 9.13219 26.4934C10.9527 29.3251 10.7499 33.1672 10.7499 33.1672H16.2105C16.2105 33.1672 18.8398 28.5157 22.6819 28.5157C26.9289 28.5157 29.154 33.1672 29.154 33.1672H33.8055C35.0187 24.0664 42.0718 23.3637 44.9748 23.3637C44.7249 22.4573 44.7935 19.2513 45.3463 17.1908L45.3466 17.1905ZM24.2307 20.7743C24.0747 20.8148 23.9127 20.8489 23.7454 20.8766V22.4305C23.7454 22.8838 23.421 23.2546 23.0249 23.2546C22.6285 23.2546 22.3044 22.8838 22.3044 22.4305V21.7694C22.3044 21.316 22.2137 20.942 22.1023 20.9389L22.0014 20.9329C20.9977 20.8721 20.0062 20.5983 19.2735 20.211C19.1118 20.1252 18.9621 20.0335 18.8282 19.9383L19.0988 19.1819C19.2513 18.7553 19.6042 18.5472 19.8829 18.7198L20.1788 18.8537C20.8853 19.1732 21.7379 19.3893 22.6246 19.3893C24.2712 19.3893 25.3692 18.4516 25.3692 17.1481C25.3692 15.8899 24.4775 15.1124 22.7849 14.4264C20.4519 13.5115 19.011 12.4368 19.011 10.4469C19.011 8.70606 20.1451 7.35016 21.9382 6.87249C22.1006 6.82927 22.2683 6.79342 22.4412 6.7646V5.3029C22.4412 4.84951 22.7652 4.47872 23.1617 4.47872C23.5578 4.47872 23.8822 4.84951 23.8822 5.3029V5.87261C23.8822 6.32599 24.0579 6.70591 24.2726 6.71716L24.4547 6.73684C25.2029 6.81592 25.8039 6.99516 26.2917 7.20955C26.4995 7.30057 26.6868 7.39864 26.8562 7.49774L26.5764 8.2365C26.4158 8.66071 26.0812 8.89198 25.8327 8.75104L25.4957 8.61186C24.9801 8.39923 24.2873 8.20663 23.4027 8.20663C21.642 8.20663 20.9784 9.25851 20.9784 10.1962C20.9784 11.3627 21.8244 11.957 23.814 12.8036C26.1702 13.7638 27.3591 14.9303 27.3591 16.966C27.3588 18.6653 26.2735 20.2465 24.2308 20.7744L24.2307 20.7743Z" fill="url(#paint0_linear_1296_153)"/>
<defs>
<linearGradient id="paint0_linear_1296_153" x1="45.8116" y1="14.05" x2="-0.0266028" y2="14.696" gradientUnits="userSpaceOnUse">
<stop stop-color="#CF9603"/>
<stop offset="0.5" stop-color="#EEDC9B"/>
<stop offset="1" stop-color="#CF9603"/>
</linearGradient>
</defs>
</svg>
