<svg width="25" height="24" viewBox="0 0 25 24" fill="none" xmlns="http://www.w3.org/2000/svg">
<path d="M21.7031 10C21.7031 17 12.7031 23 12.7031 23C12.7031 23 3.70312 17 3.70312 10C3.70313 7.61305 4.65134 5.32387 6.33916 3.63604C8.02699 1.94821 10.3162 1 12.7031 1C15.0901 1 17.3793 1.94821 19.0671 3.63604C20.7549 5.32387 21.7031 7.61305 21.7031 10Z" stroke="#4578FE" stroke-width="2" stroke-linecap="round" stroke-linejoin="round"/>
<path d="M12.7031 13C14.36 13 15.7031 11.6569 15.7031 10C15.7031 8.34315 14.36 7 12.7031 7C11.0463 7 9.70312 8.34315 9.70312 10C9.70312 11.6569 11.0463 13 12.7031 13Z" stroke="#4578FE" stroke-width="2" stroke-linecap="round" stroke-linejoin="round"/>
</svg>
