<svg width="40" height="38" viewBox="0 0 40 38" fill="none" xmlns="http://www.w3.org/2000/svg">
<path d="M7.99972 8.66657V23.3332C7.99972 23.7012 7.70117 23.9998 7.33318 23.9998H5.33326V28.6665C5.33326 29.0345 5.03471 29.333 4.66672 29.333H3.33331C2.96532 29.333 2.66677 29.0345 2.66677 28.6665L2.66646 23.9998H0.66654C0.298548 23.9998 0 23.7012 0 23.3332V8.66657C0 8.29858 0.298548 8.00003 0.66654 8.00003H2.66646V3.33329C2.66646 2.9653 2.96501 2.66675 3.333 2.66675H4.66641C5.0344 2.66675 5.33295 2.9653 5.33295 3.33329L5.33326 8.00003H7.33318C7.70117 8.00003 7.99972 8.29858 7.99972 8.66657Z" fill="url(#paint0_linear_1296_169)"/>
<path d="M23.9997 20.6663V31.333C23.9997 31.701 23.7012 31.9995 23.3332 31.9995L21.3333 31.9998V36.6666C21.3333 37.0346 21.0347 37.3331 20.6667 37.3331H19.3333C18.9653 37.3331 18.6668 37.0346 18.6668 36.6666L18.6665 31.9998H16.6665C16.2985 31.9998 16 31.7013 16 31.3333V20.6666C16 20.2986 16.2985 20.0001 16.6665 20.0001L18.6665 19.9998V15.333C18.6665 14.9651 18.965 14.6665 19.333 14.6665H20.6664C21.0344 14.6665 21.3329 14.9651 21.3329 15.333L21.3333 19.9998H23.3332C23.7012 19.9998 23.9997 20.2983 23.9997 20.6663Z" fill="url(#paint1_linear_1296_169)"/>
<path d="M40 5.99982V25.9998C40 26.3678 39.7015 26.6663 39.3335 26.6663L37.3333 26.6667V31.3334C37.3333 31.7014 37.0347 31.9999 36.6667 31.9999H35.3333C34.9653 31.9999 34.6668 31.7014 34.6668 31.3334L34.6665 26.6667H32.6665C32.2985 26.6667 32 26.3681 32 26.0001V6.00013C32 5.63214 32.2985 5.33359 32.6665 5.33359L34.6665 5.33328V0.666539C34.6665 0.298547 34.9653 0 35.3333 0H36.6667C37.0347 0 37.3333 0.298547 37.3333 0.666539V5.33328H39.3332C39.7012 5.33328 40 5.63183 40 5.99982H40Z" fill="url(#paint2_linear_1296_169)"/>
<defs>
<linearGradient id="paint0_linear_1296_169" x1="8.08176" y1="13.9629" x2="-0.00622199" y2="13.9879" gradientUnits="userSpaceOnUse">
<stop stop-color="#CF9603"/>
<stop offset="0.5" stop-color="#EEDC9B"/>
<stop offset="1" stop-color="#CF9603"/>
</linearGradient>
<linearGradient id="paint1_linear_1296_169" x1="24.0818" y1="24.2683" x2="15.9938" y2="24.2978" gradientUnits="userSpaceOnUse">
<stop stop-color="#CF9603"/>
<stop offset="0.5" stop-color="#EEDC9B"/>
<stop offset="1" stop-color="#CF9603"/>
</linearGradient>
<linearGradient id="paint2_linear_1296_169" x1="40.0821" y1="13.5555" x2="31.9938" y2="13.5764" gradientUnits="userSpaceOnUse">
<stop stop-color="#CF9603"/>
<stop offset="0.5" stop-color="#EEDC9B"/>
<stop offset="1" stop-color="#CF9603"/>
</linearGradient>
</defs>
</svg>
