<svg width="262" height="66" viewBox="0 0 262 66" fill="none" xmlns="http://www.w3.org/2000/svg">
<path fill-rule="evenodd" clip-rule="evenodd" d="M11.4658 24.4324H4.9986C2.55484 24.4324 0.647967 27.7648 0 29.431H4.57201L16.9984 43.373C19.3874 46.0534 23.497 46.2896 26.1774 43.9006L14.5001 30.799L26.2215 17.648C23.5411 15.259 19.4315 15.4952 17.0425 18.1756L11.4658 24.4324Z" fill="#4478FF"/>
<path d="M16.9385 31.3223C19.0389 29.4265 22.2785 29.5924 24.1743 31.6928L32.8014 41.2513C30.7009 43.1471 27.4614 42.9812 25.5656 40.8807L16.9385 31.3223Z" fill="#0095D4"/>
<path d="M21.7507 25.5605C23.8512 23.6648 27.0908 23.8307 28.9865 25.9311L41.5734 39.8769C39.473 41.7727 36.2334 41.6067 34.3376 39.5063L21.7507 25.5605Z" fill="#0095D4"/>
<rect x="39.4333" y="23.3242" width="6.66481" height="1.1108" fill="#0095D4"/>
<rect x="45.5427" y="24.9902" width="3.3324" height="1.1108" fill="#0095D4"/>
<rect x="39.4333" y="26.1016" width="3.8878" height="1.1108" fill="#0095D4"/>
<rect x="43.3213" y="27.7676" width="6.66481" height="1.1108" fill="#0095D4"/>
<path fill-rule="evenodd" clip-rule="evenodd" d="M27.5693 20.3044C29.6698 18.4086 32.9094 18.5746 34.8051 20.675L35.6923 21.6579H39.4334V22.7687H36.6949L44.2137 31.0993H47.2091V32.2101H45.2163L52.467 40.2436C50.3666 42.1394 47.127 41.9735 45.2312 39.873L27.5693 20.3044Z" fill="#0095D4"/>
<path d="M83.26 38.1738L78.18 31.9538V38.1738H75.38V24.2138H78.18V30.4738L83.26 24.2138H86.64L80.88 31.1338L86.8 38.1738H83.26ZM96.1217 38.3138C94.8151 38.3138 93.6151 38.0072 92.5217 37.3938C91.4284 36.7805 90.5617 35.9338 89.9217 34.8538C89.2817 33.7605 88.9617 32.5272 88.9617 31.1538C88.9617 29.7938 89.2817 28.5738 89.9217 27.4938C90.5617 26.4005 91.4284 25.5472 92.5217 24.9338C93.6151 24.3205 94.8151 24.0138 96.1217 24.0138C97.4417 24.0138 98.6417 24.3205 99.7217 24.9338C100.815 25.5472 101.675 26.4005 102.302 27.4938C102.942 28.5738 103.262 29.7938 103.262 31.1538C103.262 32.5272 102.942 33.7605 102.302 34.8538C101.675 35.9338 100.815 36.7805 99.7217 37.3938C98.6284 38.0072 97.4284 38.3138 96.1217 38.3138ZM96.1217 35.8138C96.9617 35.8138 97.7017 35.6272 98.3417 35.2538C98.9817 34.8672 99.4817 34.3205 99.8417 33.6138C100.202 32.9072 100.382 32.0872 100.382 31.1538C100.382 30.2205 100.202 29.4072 99.8417 28.7138C99.4817 28.0072 98.9817 27.4672 98.3417 27.0938C97.7017 26.7205 96.9617 26.5338 96.1217 26.5338C95.2817 26.5338 94.5351 26.7205 93.8817 27.0938C93.2417 27.4672 92.7417 28.0072 92.3817 28.7138C92.0217 29.4072 91.8417 30.2205 91.8417 31.1538C91.8417 32.0872 92.0217 32.9072 92.3817 33.6138C92.7417 34.3205 93.2417 34.8672 93.8817 35.2538C94.5351 35.6272 95.2817 35.8138 96.1217 35.8138ZM111.225 24.2138C112.692 24.2138 113.978 24.5005 115.085 25.0738C116.205 25.6472 117.065 26.4672 117.665 27.5338C118.278 28.5872 118.585 29.8138 118.585 31.2138C118.585 32.6138 118.278 33.8405 117.665 34.8938C117.065 35.9338 116.205 36.7405 115.085 37.3138C113.978 37.8872 112.692 38.1738 111.225 38.1738H106.345V24.2138H111.225ZM111.125 35.7938C112.592 35.7938 113.725 35.3938 114.525 34.5938C115.325 33.7938 115.725 32.6672 115.725 31.2138C115.725 29.7605 115.325 28.6272 114.525 27.8138C113.725 26.9872 112.592 26.5738 111.125 26.5738H109.145V35.7938H111.125ZM124.481 24.2138V38.1738H121.681V24.2138H124.481ZM140.187 38.1738H137.387L131.047 28.5938V38.1738H128.247V24.1938H131.047L137.387 33.7938V24.1938H140.187V38.1738ZM149.04 31.1738C149.04 29.8005 149.347 28.5738 149.96 27.4938C150.587 26.4005 151.433 25.5538 152.5 24.9538C153.58 24.3405 154.787 24.0338 156.12 24.0338C157.68 24.0338 159.047 24.4338 160.22 25.2338C161.393 26.0338 162.213 27.1405 162.68 28.5538H159.46C159.14 27.8872 158.687 27.3872 158.1 27.0538C157.527 26.7205 156.86 26.5538 156.1 26.5538C155.287 26.5538 154.56 26.7472 153.92 27.1338C153.293 27.5072 152.8 28.0405 152.44 28.7338C152.093 29.4272 151.92 30.2405 151.92 31.1738C151.92 32.0938 152.093 32.9072 152.44 33.6138C152.8 34.3072 153.293 34.8472 153.92 35.2338C154.56 35.6072 155.287 35.7938 156.1 35.7938C156.86 35.7938 157.527 35.6272 158.1 35.2938C158.687 34.9472 159.14 34.4405 159.46 33.7738H162.68C162.213 35.2005 161.393 36.3138 160.22 37.1138C159.06 37.9005 157.693 38.2938 156.12 38.2938C154.787 38.2938 153.58 37.9938 152.5 37.3938C151.433 36.7805 150.587 35.9338 149.96 34.8538C149.347 33.7738 149.04 32.5472 149.04 31.1738ZM174.631 35.5138H169.071L168.151 38.1738H165.211L170.231 24.1938H173.491L178.511 38.1738H175.551L174.631 35.5138ZM173.871 33.2738L171.851 27.4338L169.831 33.2738H173.871ZM191.568 28.5338C191.568 29.2805 191.388 29.9805 191.028 30.6338C190.681 31.2872 190.128 31.8138 189.368 32.2138C188.621 32.6138 187.674 32.8138 186.528 32.8138H184.188V38.1738H181.388V24.2138H186.528C187.608 24.2138 188.528 24.4005 189.288 24.7738C190.048 25.1472 190.614 25.6605 190.988 26.3138C191.374 26.9672 191.568 27.7072 191.568 28.5338ZM186.408 30.5538C187.181 30.5538 187.754 30.3805 188.128 30.0338C188.501 29.6738 188.688 29.1738 188.688 28.5338C188.688 27.1738 187.928 26.4938 186.408 26.4938H184.188V30.5538H186.408ZM197.356 24.2138V38.1738H194.556V24.2138H197.356ZM210.622 24.2138V26.4738H206.902V38.1738H204.102V26.4738H200.382V24.2138H210.622ZM222.225 35.5138H216.665L215.745 38.1738H212.805L217.825 24.1938H221.085L226.105 38.1738H223.145L222.225 35.5138ZM221.465 33.2738L219.445 27.4338L217.425 33.2738H221.465ZM231.782 35.9538H236.382V38.1738H228.982V24.2138H231.782V35.9538Z" fill="white"/>
</svg>
