<svg width="27" height="29" viewBox="0 0 27 29" fill="none" xmlns="http://www.w3.org/2000/svg">
<path fill-rule="evenodd" clip-rule="evenodd" d="M21.2158 9.1784C21.2158 6.58968 19.6765 4.31632 17.376 3.05961L18.6478 0.840367C18.6863 0.77573 18.711 0.704279 18.7205 0.630242C18.7299 0.556205 18.7239 0.481087 18.7028 0.409334C18.6817 0.33758 18.646 0.270649 18.5977 0.212502C18.5494 0.154356 18.4896 0.106175 18.4217 0.0708107C18.2882 -0.000839358 18.1307 -0.0182825 17.9839 0.0223106C17.8371 0.0629042 17.7129 0.158216 17.6387 0.287322L16.3352 2.5654C14.2876 1.78724 12.0117 1.78724 9.96406 2.5654L8.65821 0.287322C8.62167 0.223167 8.57238 0.16664 8.51318 0.120996C8.45398 0.0753525 8.38603 0.0414938 8.31325 0.0213693C8.24047 0.00124537 8.1643 -0.00474656 8.08911 0.00373876C8.01393 0.0122241 7.94122 0.0350188 7.87518 0.0708107C7.80889 0.106168 7.75048 0.153868 7.70332 0.211162C7.65615 0.268457 7.62117 0.334215 7.60037 0.404649C7.57958 0.475084 7.57339 0.548804 7.58215 0.621564C7.59092 0.694324 7.61448 0.764686 7.65146 0.8286L8.92327 3.05961C6.6204 4.31632 5.09569 6.58968 5.09569 9.1784H21.2158ZM23.9393 9.1784C24.2186 9.1784 24.4952 9.23168 24.7532 9.3352C25.0113 9.43871 25.2457 9.59043 25.4431 9.78168C25.6404 9.97292 25.7969 10.1999 25.9036 10.4498C26.0103 10.6996 26.065 10.9673 26.0647 11.2376V18.5331C26.065 18.8034 26.0103 19.0711 25.9036 19.321C25.7969 19.5708 25.6404 19.7978 25.4431 19.989C25.2457 20.1803 25.0113 20.332 24.7532 20.4355C24.4952 20.539 24.2186 20.5923 23.9393 20.5923C23.375 20.5923 22.8338 20.3754 22.4348 19.9892C22.0357 19.603 21.8116 19.0792 21.8116 18.5331V11.2376C21.8116 10.6915 22.0357 10.1677 22.4348 9.78153C22.8338 9.39536 23.375 9.1784 23.9393 9.1784ZM2.35997 9.1784C2.92429 9.1784 3.4655 9.39536 3.86454 9.78153C4.26357 10.1677 4.48775 10.6915 4.48775 11.2376V18.5331C4.48775 19.0792 4.26357 19.603 3.86454 19.9892C3.4655 20.3754 2.92429 20.5923 2.35997 20.5923C1.79648 20.5923 1.25601 20.376 0.857114 19.9909C0.458217 19.6057 0.233471 19.0831 0.232183 18.5378V11.2423C0.231543 10.9715 0.286108 10.7032 0.392753 10.4529C0.499398 10.2025 0.656028 9.97491 0.853674 9.7832C1.05132 9.59148 1.2861 9.43938 1.54457 9.3356C1.80305 9.23182 2.08013 9.1784 2.35997 9.1784ZM12.2621 22.9998V26.8594C12.2621 27.4055 12.0379 27.9293 11.6389 28.3155C11.2398 28.7016 10.6986 28.9186 10.1343 28.9186C9.57102 28.9173 9.03131 28.6998 8.63371 28.3137C8.23611 27.9275 8.01315 27.4045 8.01379 26.8594V22.9998H7.04109C6.52514 22.9998 6.03032 22.8015 5.66548 22.4484C5.30065 22.0953 5.09569 21.6164 5.09569 21.1171V9.79735H21.2158V21.1124C21.2158 21.6117 21.0108 22.0906 20.646 22.4437C20.2811 22.7968 19.7863 22.9951 19.2704 22.9951H18.2977V26.8547C18.2977 27.4008 18.0735 27.9246 17.6745 28.3108C17.2754 28.6969 16.7342 28.9139 16.1699 28.9139C15.6056 28.9139 15.0644 28.6969 14.6653 28.3108C14.2663 27.9246 14.0421 27.4008 14.0421 26.8547V22.9998H12.2621ZM9.47279 5.66794C9.47558 5.66033 9.47558 5.65202 9.47279 5.64441C9.46535 5.63924 9.45642 5.63645 9.44726 5.63645C9.4381 5.63645 9.42917 5.63924 9.42173 5.64441C9.41943 5.65209 9.41943 5.66025 9.42173 5.66794C9.42136 5.67267 9.42206 5.67741 9.42376 5.68186C9.42547 5.6863 9.42814 5.69033 9.43161 5.69368C9.43507 5.69703 9.43924 5.69962 9.44383 5.70127C9.44842 5.70292 9.45332 5.70359 9.4582 5.70324C9.46615 5.70546 9.47458 5.70546 9.48252 5.70324C9.48591 5.69492 9.48591 5.68567 9.48252 5.67735L9.47279 5.66794ZM9.91294 5.19726C9.97551 5.25761 10.0252 5.32931 10.059 5.40826C10.0929 5.48722 10.1103 5.57186 10.1103 5.65735C10.1103 5.74284 10.0929 5.82749 10.059 5.90644C10.0252 5.98539 9.97551 6.05709 9.91294 6.11744C9.78628 6.2393 9.61493 6.30771 9.43632 6.30771C9.25771 6.30771 9.08636 6.2393 8.95969 6.11744C8.89349 6.05783 8.84036 5.98592 8.80348 5.90602C8.76661 5.82611 8.74673 5.73983 8.74504 5.65234C8.74336 5.56484 8.75989 5.4779 8.79366 5.39672C8.82743 5.31554 8.87775 5.24176 8.94161 5.1798C9.00547 5.11784 9.08157 5.06896 9.16537 5.03607C9.24917 5.00318 9.33895 4.98696 9.42937 4.98837C9.51979 4.98978 9.60899 5.00879 9.69165 5.04428C9.77431 5.07976 9.84874 5.13099 9.91051 5.19491L9.91294 5.19726ZM16.9068 5.64441C16.9096 5.65202 16.9096 5.66033 16.9068 5.66794L16.9166 5.67735C16.9199 5.68567 16.9199 5.69492 16.9166 5.70324C16.9086 5.70546 16.9002 5.70546 16.8922 5.70324C16.8874 5.70359 16.8825 5.70292 16.8779 5.70127C16.8733 5.69962 16.8691 5.69703 16.8656 5.69368C16.8622 5.69033 16.8595 5.6863 16.8578 5.68186C16.8561 5.67741 16.8554 5.67267 16.8558 5.66794C16.8535 5.66025 16.8535 5.65209 16.8558 5.64441C16.8632 5.63924 16.8721 5.63645 16.8813 5.63645C16.8905 5.63645 16.8994 5.63924 16.9068 5.64441ZM17.5273 5.65347C17.5306 5.48453 17.4659 5.32097 17.347 5.19726L17.3445 5.19491C17.2828 5.13099 17.2084 5.07976 17.1257 5.04428C17.043 5.00879 16.9538 4.98978 16.8634 4.98837C16.773 4.98696 16.6832 5.00318 16.5994 5.03607C16.5156 5.06896 16.4395 5.11784 16.3756 5.1798C16.3118 5.24176 16.2615 5.31554 16.2277 5.39672C16.1939 5.4779 16.1774 5.56484 16.1791 5.65234C16.1808 5.73983 16.2006 5.82611 16.2375 5.90602C16.2744 5.98592 16.3275 6.05783 16.3937 6.11744C16.5213 6.23285 16.6901 6.29583 16.8647 6.29311C17.0392 6.29038 17.2059 6.22217 17.3295 6.10285C17.4531 5.98352 17.524 5.82241 17.5273 5.65347Z" fill="#32DE84"/>
</svg>
