<svg width="80" height="80" viewBox="0 0 80 80" fill="none" xmlns="http://www.w3.org/2000/svg">
<path d="M31.1111 5.132C34.3494 3.26239 35.9685 2.32759 37.6899 1.9617C39.2129 1.63796 40.7871 1.63796 42.3101 1.9617C44.0315 2.32759 45.6506 3.26239 48.8889 5.132L65.7521 14.868C68.9904 16.7376 70.6095 17.6724 71.7871 18.9802C72.829 20.1374 73.616 21.5006 74.0972 22.9815C74.641 24.6552 74.641 26.5248 74.641 30.264V49.736C74.641 53.4752 74.641 55.3448 74.0972 57.0185C73.616 58.4994 72.829 59.8626 71.7871 61.0198C70.6095 62.3276 68.9904 63.2624 65.7521 65.132L48.8889 74.868C45.6506 76.7376 44.0315 77.6724 42.3101 78.0383C40.7871 78.362 39.2129 78.362 37.6899 78.0383C35.9685 77.6724 34.3494 76.7376 31.1111 74.868L14.2479 65.132C11.0096 63.2624 9.39048 62.3276 8.21293 61.0198C7.17103 59.8626 6.38397 58.4994 5.9028 57.0185C5.35898 55.3448 5.35898 53.4752 5.35898 49.736V30.264C5.35898 26.5248 5.35898 24.6552 5.9028 22.9815C6.38397 21.5006 7.17103 20.1374 8.21293 18.9802C9.39048 17.6724 11.0096 16.7376 14.2479 14.868L31.1111 5.132Z" fill="#0A090D"/>
<path d="M41.0339 34.668H38.966C37.4311 34.668 36.1903 35.9559 36.1903 37.5491V48.5491C36.1903 50.1423 37.4311 51.4303 38.966 51.4303H41.0339C42.5688 51.4303 43.8095 50.1423 43.8095 48.5491V37.5491C43.8095 35.9559 42.5688 34.668 41.0339 34.668Z" fill="#4476F8"/>
<path d="M39.2379 30.0977H40.7618V34.6692H39.2379V30.0977Z" fill="#D9D9D9"/>
<path d="M39.2379 51.4336H40.7618V56.0051H39.2379V51.4336Z" fill="#D9D9D9"/>
<path d="M52.9472 28.5703H50.6724C48.9841 28.5703 47.6193 29.4589 47.6193 30.5582V41.8208C47.6193 42.9201 48.9841 43.8088 50.6724 43.8088H52.9472C54.6355 43.8088 56.0004 42.9201 56.0004 41.8208V30.5582C56.0004 29.4589 54.6355 28.5703 52.9472 28.5703Z" fill="#4476F8"/>
<path d="M51.4288 24H52.1908V28.5715H51.4288V24Z" fill="#D9D9D9"/>
<path d="M51.4288 43.8086H52.1908V48.3801H51.4288V43.8086Z" fill="#D9D9D9"/>
<path d="M28.8432 30.8125H26.7753C25.2404 30.8125 23.9996 32.1159 23.9996 33.7282V37.0398C23.9996 38.6522 25.2404 39.9556 26.7753 39.9556H28.8432C30.3781 39.9556 31.6189 38.6522 31.6189 37.0398V33.7282C31.6189 32.1159 30.3781 30.8125 28.8432 30.8125Z" fill="#4476F8"/>
<path d="M27.8092 27.0039H28.5711V30.8135H27.8092V27.0039Z" fill="#D9D9D9"/>
<path d="M27.8092 39.1953H28.5711V43.7668H27.8092V39.1953Z" fill="#D9D9D9"/>
</svg>
