<svg width="26" height="30" viewBox="0 0 26 30" fill="none" xmlns="http://www.w3.org/2000/svg">
<path fill-rule="evenodd" clip-rule="evenodd" d="M21.6433 15.9386C21.6051 12.1407 24.7883 10.3183 24.9305 10.228C23.1413 7.65041 20.3538 7.2961 19.3606 7.25626C16.9885 7.0204 14.7327 8.63251 13.5275 8.63251C12.3257 8.63251 10.4685 7.29165 8.50169 7.32713C5.91652 7.36477 3.53314 8.808 2.20043 11.0884C-0.48539 15.6778 1.51345 22.48 4.13127 26.2015C5.41005 28.0239 6.93507 30.0712 8.93786 29.9981C10.8659 29.9234 11.5955 28.768 13.9277 28.768C16.2594 28.768 16.9142 29.9981 18.9553 29.9588C21.0306 29.9212 22.3453 28.1009 23.6157 26.2723C25.0857 24.1575 25.6882 22.1124 25.7248 22.0073C25.6786 21.9868 21.6781 20.4776 21.6376 15.9402L21.6433 15.9386ZM17.8097 4.79042C18.8721 3.52098 19.5899 1.75883 19.3938 0C17.8631 0.0614492 16.007 1.0048 14.9081 2.27259C13.9216 3.39808 13.0599 5.19178 13.2903 6.91461C14.9997 7.04585 16.7451 6.05929 17.808 4.79262L17.8097 4.79042Z" fill="white"/>
</svg>
